<?xml version="1.0" standalone="no"?>
<!DOCTYPE svg PUBLIC "-//W3C//DTD SVG 20010904//EN"
 "http://www.w3.org/TR/2001/REC-SVG-20010904/DTD/svg10.dtd">
<svg version="1.0" xmlns="http://www.w3.org/2000/svg"
 width="512.000000pt" height="512.000000pt" viewBox="0 0 512.000000 512.000000"
 preserveAspectRatio="xMidYMid meet">
<metadata>
Created by potrace 1.14, written by Peter Selinger 2001-2017
</metadata>
<g transform="translate(0.000000,512.000000) scale(0.100000,-0.100000)"
fill="#000000" stroke="none">
<path d="M2665 5066 c-42 -16 -91 -42 -320 -174 -233 -134 -483 -261 -644
-326 -236 -96 -236 -96 -236 -198 0 -62 3 -72 25 -90 21 -17 34 -19 90 -14
165 14 363 89 554 209 99 62 208 112 259 120 l39 6 -7 -57 c-3 -31 -8 -66 -10
-77 -3 -11 -6 -36 -9 -55 -5 -41 -34 -250 -42 -300 -22 -151 -46 -320 -49
-345 -1 -16 -8 -66 -14 -110 -12 -94 -20 -159 -27 -235 -2 -30 -7 -64 -9 -75
-2 -11 -7 -69 -11 -130 -8 -133 -8 -133 -20 -144 -23 -22 -240 -77 -458 -115
-16 -3 -52 -10 -80 -16 -28 -6 -61 -12 -73 -14 -45 -9 -179 -47 -203 -59 -55
-25 -80 -49 -91 -87 -10 -34 -9 -44 11 -81 28 -54 64 -86 113 -100 66 -18 129
-5 542 110 99 28 199 53 223 57 42 6 44 6 96 -50 l52 -56 80 5 c53 4 94 13
124 28 l45 22 0 70 c0 68 1 70 30 83 17 7 62 22 100 32 76 21 93 24 235 45 25
4 56 8 70 10 14 2 48 7 75 10 28 4 57 8 65 10 8 2 35 7 60 10 101 14 199 38
267 67 63 26 74 34 81 61 9 36 1 95 -22 149 l-16 38 -83 -5 c-163 -10 -196
-16 -497 -89 -190 -47 -335 -75 -381 -76 -16 0 -29 7 -33 16 -7 17 0 371 9
439 2 22 7 65 10 95 13 119 16 147 25 195 5 28 12 68 15 90 14 99 47 270 91
470 14 66 28 131 30 145 3 14 9 41 14 60 5 19 12 51 15 70 3 19 19 54 35 77
34 47 38 88 16 151 -20 56 -64 120 -90 129 -33 11 -39 11 -71 -1z"/>
<path d="M1704 2562 c-72 -46 -94 -106 -129 -352 -11 -83 -59 -251 -136 -482
-89 -268 -217 -523 -387 -773 -161 -236 -351 -392 -483 -398 -35 -1 -46 4 -70
31 -51 57 -64 124 -64 327 1 164 10 337 20 375 2 8 7 39 10 69 4 30 8 61 10
70 1 9 6 41 10 71 4 30 9 64 11 75 2 11 6 31 9 45 2 14 18 99 36 190 34 182
37 251 13 322 -24 75 -89 110 -136 75 -18 -14 -56 -83 -63 -113 -2 -11 -18
-68 -35 -129 -26 -96 -54 -224 -66 -305 -7 -51 -12 -86 -19 -135 -4 -27 -8
-59 -10 -71 -5 -36 -19 -178 -32 -334 -9 -105 -9 -404 -1 -490 41 -410 280
-549 582 -340 100 69 178 148 319 320 79 96 195 291 332 555 37 72 71 134 76
140 19 19 27 -13 33 -135 4 -69 8 -136 10 -150 13 -89 19 -120 37 -188 38
-149 111 -275 193 -331 188 -128 395 -25 656 329 103 138 238 360 321 526 35
69 48 80 44 37 -2 -16 -6 -82 -9 -149 -4 -66 -9 -138 -11 -160 -2 -21 -6 -61
-9 -89 -3 -27 -14 -122 -25 -210 -11 -88 -23 -194 -27 -235 -3 -41 -9 -95 -13
-120 -4 -25 -7 -94 -6 -155 0 -124 15 -169 68 -207 35 -25 115 -35 146 -19 30
17 59 67 125 221 68 158 127 273 281 540 164 285 310 516 374 590 l30 35 2
-90 c2 -151 14 -350 24 -406 2 -13 7 -46 10 -73 3 -27 7 -51 9 -55 2 -3 7 -27
10 -53 8 -61 56 -226 89 -306 35 -84 108 -192 165 -243 49 -43 141 -91 202
-104 99 -21 249 -7 343 34 241 104 416 391 373 611 -4 19 -8 36 -10 37 -1 1
-58 -52 -127 -120 -132 -130 -201 -177 -289 -201 -78 -20 -203 -15 -260 10
-52 24 -121 90 -156 149 -40 69 -85 209 -99 305 -4 24 -8 47 -10 50 -3 5 -13
100 -20 185 -5 63 -5 334 0 395 3 30 9 93 13 140 12 124 8 225 -12 255 -32 48
-140 28 -240 -43 -46 -33 -161 -167 -174 -202 -3 -8 -17 -33 -32 -55 -14 -22
-41 -69 -60 -105 -18 -36 -41 -77 -52 -92 -10 -14 -18 -29 -18 -32 0 -3 -39
-69 -87 -148 -47 -79 -142 -235 -210 -348 l-124 -205 5 80 c3 44 8 125 11 180
4 55 8 118 10 140 9 89 16 162 20 190 9 65 16 111 20 140 3 17 7 47 10 68 3
20 7 54 10 75 3 20 7 51 10 67 3 17 7 50 10 75 9 78 26 204 31 230 12 67 15
278 5 316 -28 104 -139 120 -218 31 -55 -62 -81 -170 -84 -347 -2 -82 -3 -88
-54 -180 -28 -52 -55 -102 -59 -110 -4 -8 -12 -24 -19 -35 -7 -11 -40 -70 -75
-130 -219 -382 -413 -619 -556 -679 -193 -80 -305 127 -300 554 1 87 10 251
18 325 2 17 7 66 10 110 4 44 9 96 11 115 32 268 36 299 40 330 2 14 7 52 11
85 3 33 8 63 10 67 8 12 -17 103 -34 126 -25 32 -79 38 -118 14z"/>
</g>
</svg>
